REM DIRINDEX 1\2,1\3
REM DIRNAME folder01,folder02,folder03
TITLE ""
FILE "Disc2Track13.mp3" MP3
  TRACK 01 AUDIO
    TITLE "0:"
    INDEX 01 00:00:00
  TRACK 02 AUDIO
    TITLE "3:cjc116_3242"
    INDEX 01 00:00:09
  TRACK 03 AUDIO
    TITLE "0:"
    INDEX 01 00:02:02
  TRACK 04 AUDIO
    TITLE "2:cjc116_3243"
    INDEX 01 00:02:59
  TRACK 05 AUDIO
    TITLE "0:"
    INDEX 01 00:03:70
  TRACK 06 AUDIO
    TITLE "2:cjc116_3244"
    INDEX 01 00:04:13
  TRACK 07 AUDIO
    TITLE "0:"
    INDEX 01 00:07:58
  TRACK 08 AUDIO
    TITLE "2:cjc116_3245"
    INDEX 01 00:08:30
  TRACK 09 AUDIO
    TITLE "0:"
    INDEX 01 00:10:70
  TRACK 10 AUDIO
    TITLE "2:cjc116_3246"
    INDEX 01 00:11:21
  TRACK 11 AUDIO
    TITLE "0:"
    INDEX 01 00:15:32
  TRACK 12 AUDIO
    TITLE "2:cjc116_3247"
    INDEX 01 00:16:08
  TRACK 13 AUDIO
    TITLE "0:"
    INDEX 01 00:17:10
  TRACK 14 AUDIO
    TITLE "2:cjc116_3248"
    INDEX 01 00:17:31
  TRACK 15 AUDIO
    TITLE "0:"
    INDEX 01 00:20:16
  TRACK 16 AUDIO
    TITLE "2:cjc116_3249"
    INDEX 01 00:20:61
  TRACK 17 AUDIO
    TITLE "0:"
    INDEX 01 00:21:74
  TRACK 18 AUDIO
    TITLE "2:cjc116_3250"
    INDEX 01 00:22:07
  TRACK 19 AUDIO
    TITLE "0:"
    INDEX 01 00:25:70
  TRACK 20 AUDIO
    TITLE "2:cjc116_3251"
    INDEX 01 00:26:44
  TRACK 21 AUDIO
    TITLE "0:"
    INDEX 01 00:27:41
  TRACK 22 AUDIO
    TITLE "2:cjc116_3252"
    INDEX 01 00:27:61
  TRACK 23 AUDIO
    TITLE "0:"
    INDEX 01 00:31:67
  TRACK 24 AUDIO
    TITLE "2:cjc116_3253"
    INDEX 01 00:32:41
  TRACK 25 AUDIO
    TITLE "0:"
    INDEX 01 00:33:62
  TRACK 26 AUDIO
    TITLE "2:cjc116_3254"
    INDEX 01 00:33:73
  TRACK 27 AUDIO
    TITLE "0:"
    INDEX 01 00:37:67
  TRACK 28 AUDIO
    TITLE "2:cjc116_3255"
    INDEX 01 00:38:41
  TRACK 29 AUDIO
    TITLE "0:"
    INDEX 01 00:39:35
  TRACK 30 AUDIO
    TITLE "2:cjc116_3256"
    INDEX 01 00:39:60
  TRACK 31 AUDIO
    TITLE "0:"
    INDEX 01 00:43:31
  TRACK 32 AUDIO
    TITLE "2:cjc116_3257"
    INDEX 01 00:43:70
  TRACK 33 AUDIO
    TITLE "0:"
    INDEX 01 00:45:02
  TRACK 34 AUDIO
    TITLE "2:cjc116_3258"
    INDEX 01 00:45:22
  TRACK 35 AUDIO
    TITLE "0:"
    INDEX 01 00:49:10
  TRACK 36 AUDIO
    TITLE "2:cjc116_3259"
    INDEX 01 00:49:61
  TRACK 37 AUDIO
    TITLE "0:"
    INDEX 01 00:50:64
  TRACK 38 AUDIO
    TITLE "2:cjc116_3260"
    INDEX 01 00:51:18
  TRACK 39 AUDIO
    TITLE "0:"
    INDEX 01 00:56:16
  TRACK 40 AUDIO
    TITLE "2:cjc116_3261"
    INDEX 01 00:56:63
  TRACK 41 AUDIO
    TITLE "0:"
    INDEX 01 00:58:01
  TRACK 42 AUDIO
    TITLE "2:cjc116_3262"
    INDEX 01 00:58:18
  TRACK 43 AUDIO
    TITLE "0:"
    INDEX 01 01:02:06
  TRACK 44 AUDIO
    TITLE "2:cjc116_3263"
    INDEX 01 01:02:44
  TRACK 45 AUDIO
    TITLE "0:"
    INDEX 01 01:03:49
  TRACK 46 AUDIO
    TITLE "2:cjc116_3264"
    INDEX 01 01:03:67
  TRACK 47 AUDIO
    TITLE "0:"
    INDEX 01 01:08:05
  TRACK 48 AUDIO
    TITLE "2:cjc116_3265"
    INDEX 01 01:08:52
  TRACK 49 AUDIO
    TITLE "0:"
    INDEX 01 01:09:52
  TRACK 50 AUDIO
    TITLE "2:cjc116_3266"
    INDEX 01 01:10:00
  TRACK 51 AUDIO
    TITLE "0:"
    INDEX 01 01:13:28
  TRACK 52 AUDIO
    TITLE "2:cjc116_3267"
    INDEX 01 01:13:69
  TRACK 53 AUDIO
    TITLE "0:"
    INDEX 01 01:15:07
  TRACK 54 AUDIO
    TITLE "2:cjc116_3268"
    INDEX 01 01:15:29
  TRACK 55 AUDIO
    TITLE "0:"
    INDEX 01 01:19:40
  TRACK 56 AUDIO
    TITLE "2:cjc116_3269"
    INDEX 01 01:20:08
  TRACK 57 AUDIO
    TITLE "0:"
    INDEX 01 01:21:10
  TRACK 58 AUDIO
    TITLE "2:cjc116_3270"
    INDEX 01 01:21:35
  TRACK 59 AUDIO
    TITLE "0:"
    INDEX 01 01:24:67
  TRACK 60 AUDIO
    TITLE "2:cjc116_3271"
    INDEX 01 01:25:31
  TRACK 61 AUDIO
    TITLE "0:"
    INDEX 01 01:26:32
  TRACK 62 AUDIO
    TITLE "2:cjc116_3272"
    INDEX 01 01:26:54
  TRACK 63 AUDIO
    TITLE "0:"
    INDEX 01 01:31:10
  TRACK 64 AUDIO
    TITLE "2:cjc116_3273"
    INDEX 01 01:31:57
  TRACK 65 AUDIO
    TITLE "0:"
    INDEX 01 01:32:55
  TRACK 66 AUDIO
    TITLE "2:cjc116_3274"
    INDEX 01 01:33:03
  TRACK 67 AUDIO
    TITLE "0:"
    INDEX 01 01:37:01
  TRACK 68 AUDIO
    TITLE "2:cjc116_3275"
    INDEX 01 01:37:38
  TRACK 69 AUDIO
    TITLE "0:"
    INDEX 01 01:38:67
  TRACK 70 AUDIO
    TITLE "2:cjc116_3276"
    INDEX 01 01:39:10
  TRACK 71 AUDIO
    TITLE "0:"
    INDEX 01 01:43:07
  TRACK 72 AUDIO
    TITLE "2:cjc116_3277"
    INDEX 01 01:43:47
  TRACK 73 AUDIO
    TITLE "0:"
    INDEX 01 01:44:58
  TRACK 74 AUDIO
    TITLE "2:cjc116_3278"
    INDEX 01 01:45:06
  TRACK 75 AUDIO
    TITLE "0:"
    INDEX 01 01:48:44
  TRACK 76 AUDIO
    TITLE "2:cjc116_3279"
    INDEX 01 01:49:16
  TRACK 77 AUDIO
    TITLE "0:"
    INDEX 01 01:50:25
  TRACK 78 AUDIO
    TITLE "2:cjc116_3280"
    INDEX 01 01:50:49
  TRACK 79 AUDIO
    TITLE "0:"
    INDEX 01 01:55:05
  TRACK 80 AUDIO
    TITLE "2:cjc116_3281"
    INDEX 01 01:55:60
  TRACK 81 AUDIO
    TITLE "0:"
    INDEX 01 01:56:61
  TRACK 82 AUDIO
    TITLE "2:cjc116_3282"
    INDEX 01 01:57:13
  TRACK 83 AUDIO
    TITLE "0:"
    INDEX 01 02:00:31
  TRACK 84 AUDIO
    TITLE "2:cjc116_3283"
    INDEX 01 02:00:72
  TRACK 85 AUDIO
    TITLE "0:"
    INDEX 01 02:02:01
  TRACK 86 AUDIO
    TITLE "2:cjc116_3284"
    INDEX 01 02:02:22
  TRACK 87 AUDIO
    TITLE "0:"
    INDEX 01 02:06:16
  TRACK 88 AUDIO
    TITLE "2:cjc116_3285"
    INDEX 01 02:06:54
  TRACK 89 AUDIO
    TITLE "0:"
    INDEX 01 02:08:58
  TRACK 90 AUDIO
    TITLE "2:cjc116_3286"
    INDEX 01 02:09:07
  TRACK 91 AUDIO
    TITLE "0:"
    INDEX 01 02:11:37
  TRACK 92 AUDIO
    TITLE "2:cjc116_3287"
    INDEX 01 02:12:07
  TRACK 93 AUDIO
    TITLE "0:"
    INDEX 01 02:13:07
  TRACK 94 AUDIO
    TITLE "2:cjc116_3288"
    INDEX 01 02:13:32
  TRACK 95 AUDIO
    TITLE "0:"
    INDEX 01 02:16:50
  TRACK 96 AUDIO
    TITLE "2:cjc116_3289"
    INDEX 01 02:17:16
  TRACK 97 AUDIO
    TITLE "0:"
    INDEX 01 02:18:23
  TRACK 98 AUDIO
    TITLE "2:cjc116_3290"
    INDEX 01 02:18:47
  TRACK 99 AUDIO
    TITLE "0:"
    INDEX 01 02:22:02
  TRACK 100 AUDIO
    TITLE "2:cjc116_3291"
    INDEX 01 02:22:45
  TRACK 101 AUDIO
    TITLE "0:"
    INDEX 01 02:23:40
  TRACK 102 AUDIO
    TITLE "2:cjc116_3292"
    INDEX 01 02:23:60
  TRACK 103 AUDIO
    TITLE "0:"
    INDEX 01 02:27:20
  TRACK 104 AUDIO
    TITLE "2:cjc116_3293"
    INDEX 01 02:27:63
  TRACK 105 AUDIO
    TITLE "0:"
    INDEX 01 02:28:67
  TRACK 106 AUDIO
    TITLE "2:cjc116_3294"
    INDEX 01 02:29:17
  TRACK 107 AUDIO
    TITLE "0:"
    INDEX 01 02:32:67
  TRACK 108 AUDIO
    TITLE "2:cjc116_3295"
    INDEX 01 02:33:33
  TRACK 109 AUDIO
    TITLE "0:"
    INDEX 01 02:34:52
  TRACK 110 AUDIO
    TITLE "2:cjc116_3296"
    INDEX 01 02:34:71
  TRACK 111 AUDIO
    TITLE "0:"
    INDEX 01 02:39:27
  TRACK 112 AUDIO
    TITLE "2:cjc116_3297"
    INDEX 01 02:40:01
  TRACK 113 AUDIO
    TITLE "0:"
    INDEX 01 02:41:01
  TRACK 114 AUDIO
    TITLE "2:cjc116_3298"
    INDEX 01 02:41:36
  TRACK 115 AUDIO
    TITLE "0:"
    INDEX 01 02:45:16
  TRACK 116 AUDIO
    TITLE "2:cjc116_3299"
    INDEX 01 02:45:57
  TRACK 117 AUDIO
    TITLE "0:"
    INDEX 01 02:47:02
  TRACK 118 AUDIO
    TITLE "2:cjc116_3300"
    INDEX 01 02:47:17
  TRACK 119 AUDIO
    TITLE "0:"
    INDEX 01 02:51:07
  TRACK 120 AUDIO
    TITLE "2:cjc116_3301"
    INDEX 01 02:51:68
  TRACK 121 AUDIO
    TITLE "0:"
    INDEX 01 02:52:67
  TRACK 122 AUDIO
    TITLE "2:cjc116_3302"
    INDEX 01 02:53:16
  TRACK 123 AUDIO
    TITLE "0:"
    INDEX 01 02:56:51
  TRACK 124 AUDIO
    TITLE "2:cjc116_3303"
    INDEX 01 02:57:18
  TRACK 125 AUDIO
    TITLE "0:"
    INDEX 01 02:58:41
  TRACK 126 AUDIO
    TITLE "2:cjc116_3304"
    INDEX 01 02:58:58
  TRACK 127 AUDIO
    TITLE "0:"
    INDEX 01 03:02:62
  TRACK 128 AUDIO
    TITLE "2:cjc116_3305"
    INDEX 01 03:03:32
  TRACK 129 AUDIO
    TITLE "0:"
    INDEX 01 03:04:43
  TRACK 130 AUDIO
    TITLE "2:cjc116_3306"
    INDEX 01 03:04:59
  TRACK 131 AUDIO
    TITLE "0:"
    INDEX 01 03:09:19
  TRACK 132 AUDIO
    TITLE "2:cjc116_3307"
    INDEX 01 03:09:60
  TRACK 133 AUDIO
    TITLE "0:"
    INDEX 01 03:10:65
  TRACK 134 AUDIO
    TITLE "2:cjc116_3308"
    INDEX 01 03:11:12
  TRACK 135 AUDIO
    TITLE "0:"
    INDEX 01 03:14:22
  TRACK 136 AUDIO
    TITLE "2:cjc116_3309"
    INDEX 01 03:14:63
  TRACK 137 AUDIO
    TITLE "0:"
    INDEX 01 03:15:68
  TRACK 138 AUDIO
    TITLE "2:cjc116_3310"
    INDEX 01 03:16:15
  TRACK 139 AUDIO
    TITLE "0:"
    INDEX 01 03:19:62
  TRACK 140 AUDIO
    TITLE "2:cjc116_3311"
    INDEX 01 03:20:28
  TRACK 141 AUDIO
    TITLE "0:"
    INDEX 01 03:21:53
  TRACK 142 AUDIO
    TITLE "2:cjc116_3312"
    INDEX 01 03:21:69
  TRACK 143 AUDIO
    TITLE "0:"
    INDEX 01 03:25:61
  TRACK 144 AUDIO
    TITLE "2:cjc116_3313"
    INDEX 01 03:26:21
  TRACK 145 AUDIO
    TITLE "0:"
    INDEX 01 03:27:56
  TRACK 146 AUDIO
    TITLE "2:cjc116_3314"
    INDEX 01 03:27:70
  TRACK 147 AUDIO
    TITLE "0:"
    INDEX 01 03:33:19
  TRACK 148 AUDIO
    TITLE "2:cjc116_3315"
    INDEX 01 03:33:62
  TRACK 149 AUDIO
    TITLE "0:"
    INDEX 01 03:35:04
  TRACK 150 AUDIO
    TITLE "2:cjc116_3316"
    INDEX 01 03:35:22
  TRACK 151 AUDIO
    TITLE "0:"
    INDEX 01 03:39:02
  TRACK 152 AUDIO
    TITLE "2:cjc116_3317"
    INDEX 01 03:39:59
  TRACK 153 AUDIO
    TITLE "0:"
    INDEX 01 03:40:57
  TRACK 154 AUDIO
    TITLE "2:cjc116_3318"
    INDEX 01 03:40:72
  TRACK 155 AUDIO
    TITLE "0:"
    INDEX 01 03:44:43
  TRACK 156 AUDIO
    TITLE "2:cjc116_3319"
    INDEX 01 03:45:03
  TRACK 157 AUDIO
    TITLE "0:"
    INDEX 01 03:46:26
  TRACK 158 AUDIO
    TITLE "2:cjc116_3320"
    INDEX 01 03:46:47
  TRACK 159 AUDIO
    TITLE "0:"
    INDEX 01 03:50:55
  TRACK 160 AUDIO
    TITLE "2:cjc116_3321"
    INDEX 01 03:51:19
  TRACK 161 AUDIO
    TITLE "0:"
    INDEX 01 03:52:28
  TRACK 162 AUDIO
    TITLE "2:cjc116_3322"
    INDEX 01 03:52:46
  TRACK 163 AUDIO
    TITLE "0:"
    INDEX 01 03:57:16
  TRACK 164 AUDIO
    TITLE "2:cjc116_3323"
    INDEX 01 03:57:61
  TRACK 165 AUDIO
    TITLE "0:"
    INDEX 01 03:58:54
  TRACK 166 AUDIO
    TITLE "2:cjc116_3324"
    INDEX 01 03:58:72
  TRACK 167 AUDIO
    TITLE "0:"
    INDEX 01 04:02:35
  TRACK 168 AUDIO
    TITLE "2:cjc116_3325"
    INDEX 01 04:03:09
  TRACK 169 AUDIO
    TITLE "0:"
    INDEX 01 04:04:30
  TRACK 170 AUDIO
    TITLE "2:cjc116_3326"
    INDEX 01 04:04:47
  TRACK 171 AUDIO
    TITLE "0:"
    INDEX 01 04:08:43
